<?xml version="1.0" standalone="no"?>
<!DOCTYPE svg PUBLIC "-//W3C//DTD SVG 20010904//EN"
 "http://www.w3.org/TR/2001/REC-SVG-20010904/DTD/svg10.dtd">
<svg version="1.0" xmlns="http://www.w3.org/2000/svg"
 width="700.000000pt" height="700.000000pt" viewBox="0 0 700.000000 700.000000"
 preserveAspectRatio="xMidYMid meet">
<metadata>
Created by potrace 1.14, written by Peter Selinger 2001-2017
</metadata>
<g transform="translate(0.000000,700.000000) scale(0.100000,-0.100000)"
fill="#000000" stroke="none">
<path d="M585 6620 c-83 -20 -163 -77 -206 -146 -48 -79 -49 -85 -49 -946 l0
-808 23 0 c12 0 52 -3 89 -6 37 -4 77 -4 90 0 42 11 98 72 122 134 35 88 126
250 212 375 50 72 46 119 -24 307 -144 383 -184 512 -185 585 0 101 26 147
124 217 13 9 72 52 130 95 58 43 130 95 160 115 47 33 51 38 29 39 -14 0 -34
2 -45 4 -11 2 -45 7 -75 10 -59 6 -111 12 -175 20 -78 10 -190 13 -220 5z"/>
<path d="M1300 6533 c14 -15 33 -36 42 -45 9 -10 103 -116 208 -237 110 -126
211 -233 237 -251 53 -35 93 -38 173 -14 29 9 63 18 74 20 35 8 120 25 141 29
11 2 59 9 107 15 100 12 150 28 206 65 34 23 45 39 75 118 52 137 61 166 56
171 -4 3 -55 10 -164 21 -84 9 -143 16 -162 19 -10 2 -50 7 -88 10 -39 4 -81
8 -95 11 -14 2 -54 7 -90 10 -36 3 -76 8 -90 10 -14 2 -52 7 -85 10 -33 4 -73
8 -90 10 -29 4 -78 9 -180 20 -47 5 -130 15 -250 30 l-50 6 25 -28z"/>
<path d="M3595 6219 c2 -41 7 -148 10 -238 4 -120 10 -172 22 -195 30 -60 89
-128 158 -184 88 -71 123 -103 252 -227 119 -114 175 -148 248 -149 44 0 252
55 454 121 103 33 191 23 236 -27 9 -10 60 -95 112 -187 52 -92 120 -211 150
-264 64 -113 75 -169 49 -247 -20 -58 -64 -111 -263 -315 -79 -81 -151 -163
-159 -182 -19 -45 -18 -74 6 -172 11 -45 21 -92 24 -105 2 -13 12 -61 21 -108
9 -47 19 -121 21 -165 6 -83 32 -159 71 -202 11 -12 100 -70 199 -129 98 -58
187 -113 197 -122 42 -37 43 -117 2 -332 -3 -14 -7 -43 -11 -65 -15 -105 -47
-244 -65 -282 -39 -82 -91 -99 -312 -107 -102 -4 -138 -9 -170 -25 -47 -23
-48 -23 -121 -164 -29 -56 -89 -162 -134 -235 -111 -183 -113 -191 -78 -328 8
-32 17 -71 20 -85 2 -14 21 -88 41 -165 39 -148 40 -196 8 -239 -17 -22 -108
-95 -118 -95 -3 0 -27 -15 -53 -33 -78 -54 -240 -148 -271 -157 -16 -4 -53 -7
-81 -5 -58 4 -63 7 -227 166 -127 121 -221 193 -291 219 -46 18 -51 18 -149 0
-107 -20 -272 -45 -363 -56 -64 -8 -102 -25 -141 -65 -38 -38 -45 -54 -127
-260 -96 -240 -92 -222 -46 -215 39 5 98 12 183 21 24 2 60 7 80 9 20 3 63 8
96 11 33 3 71 8 85 10 14 2 52 6 85 10 78 8 133 14 225 25 41 5 100 12 130 15
66 7 134 15 175 20 17 2 57 7 90 10 33 3 71 8 85 10 14 2 52 7 85 10 33 3 71
8 85 11 14 2 51 6 82 9 85 8 137 14 177 19 45 6 122 15 181 21 57 6 224 24
270 30 49 7 105 13 170 20 30 3 66 7 80 10 14 2 52 7 85 10 64 6 127 13 185
20 19 3 96 12 170 20 74 8 158 18 185 21 28 3 61 7 75 9 14 2 55 6 92 10 37 3
75 7 85 9 10 2 50 7 88 11 74 7 100 10 180 20 98 13 121 17 166 30 111 32 211
111 256 202 l27 57 1 2180 c0 1200 -3 2200 -7 2224 -12 65 -37 112 -93 168
-78 79 -185 123 -340 139 -27 3 -66 8 -85 10 -19 2 -57 7 -85 10 -27 2 -70 7
-95 10 -88 10 -116 14 -175 20 -33 3 -74 8 -91 10 -16 2 -59 7 -95 10 -35 4
-71 8 -79 10 -8 2 -46 7 -85 10 -38 3 -81 8 -95 10 -14 2 -56 7 -95 11 -38 3
-79 8 -90 10 -11 2 -49 6 -85 9 -36 3 -76 8 -90 10 -14 3 -45 7 -70 9 -47 6
-100 11 -185 21 -27 3 -63 8 -80 10 -16 2 -64 7 -105 10 -41 4 -82 8 -90 10
-16 4 -44 8 -205 25 -55 6 -116 13 -135 15 -19 3 -60 7 -90 10 -30 3 -68 8
-85 10 -16 2 -59 7 -95 10 -36 4 -76 8 -90 11 -14 2 -57 7 -97 10 l-72 6 4
-73z"/>
<path d="M2488 5295 c-2 -1 -30 -5 -63 -9 -420 -41 -802 -319 -999 -728 -122
-254 -162 -439 -160 -748 1 -156 23 -333 54 -435 63 -209 124 -353 211 -500
86 -146 258 -353 281 -339 11 6 174 140 188 154 3 3 34 30 70 60 36 30 67 57
70 60 3 3 26 22 52 43 26 21 53 43 60 50 7 7 69 59 138 117 69 57 127 107 130
110 3 3 26 23 53 44 26 21 45 42 42 45 -4 3 -25 6 -48 7 -381 13 -505 17 -519
16 -12 0 -18 7 -19 21 0 12 -2 29 -4 37 -1 9 -5 47 -9 85 -12 131 -17 180 -21
192 -6 17 -15 8 285 264 80 68 153 130 162 139 9 8 107 92 216 185 l200 170
-59 62 c-33 34 -59 65 -59 71 0 27 39 40 140 46 346 18 323 18 349 -4 20 -18
25 -31 25 -73 0 -47 -12 -269 -19 -342 -2 -16 -3 -38 -4 -47 0 -10 -10 -22
-21 -28 -18 -9 -26 -6 -54 22 -19 18 -47 46 -63 61 l-30 28 -292 -290 c-161
-159 -288 -291 -284 -294 4 -2 42 -8 83 -12 41 -4 89 -8 105 -10 33 -3 134
-14 180 -20 17 -2 45 -4 64 -4 29 -1 49 -15 142 -108 60 -59 109 -111 109
-115 0 -5 -228 -236 -507 -514 -408 -406 -505 -507 -493 -515 36 -25 222 -109
295 -132 157 -52 285 -71 460 -71 138 0 215 10 345 45 364 95 666 343 840 689
51 102 113 288 130 390 7 41 14 84 17 95 10 41 11 333 2 395 -5 36 -11 79 -14
97 -18 142 -88 355 -170 520 -189 380 -468 670 -822 851 -128 66 -300 125
-430 147 -18 3 -48 8 -65 11 -35 6 -265 14 -270 9z"/>
<path d="M330 3113 c0 -448 2 -535 13 -523 8 8 49 58 93 110 43 52 98 115 122
140 48 50 48 50 7 175 -61 182 -82 278 -91 415 -6 103 -26 142 -98 198 -16 12
-33 22 -37 22 -5 0 -9 -242 -9 -537z"/>
<path d="M330 1375 c0 -766 0 -773 58 -859 58 -85 170 -142 277 -140 48 1 184
14 205 19 8 2 44 6 80 10 36 3 76 8 90 10 14 3 50 7 80 10 30 3 71 8 90 10 19
2 60 7 90 10 30 3 66 8 80 10 14 2 59 7 100 11 41 3 82 7 90 9 8 2 44 6 80 10
36 4 79 9 95 11 28 3 85 10 165 19 19 2 67 7 105 11 85 8 101 16 55 26 -117
27 -156 40 -192 64 -57 36 -86 90 -93 170 -4 38 -9 85 -11 104 -3 19 -6 126
-9 237 -6 282 6 262 -299 505 -261 208 -246 199 -319 202 -81 4 -182 -14 -345
-64 -74 -22 -145 -40 -158 -40 -33 0 -93 32 -125 67 -28 29 -149 209 -149 221
0 4 -9 18 -20 32 -19 25 -20 22 -20 -675z"/>
</g>
</svg>
