<?xml version="1.0" encoding="utf-8"?>
<!-- Generator: Adobe Illustrator 25.0.0, SVG Export Plug-In . SVG Version: 6.00 Build 0)  -->
<svg version="1.1" id="Layer_1" xmlns="http://www.w3.org/2000/svg" xmlns:xlink="http://www.w3.org/1999/xlink" x="0px" y="0px"
	 viewBox="0 0 180 50" style="enable-background:new 0 0 180 50;" xml:space="preserve">
<style type="text/css">
	.st0{fill:#F08522;}
	.st1{fill:#222C48;}
</style>
<g>
	<g>
		<path class="st0" d="M123.7,19.2c0,1.6-0.2,3-0.7,4.2c-0.5,1.2-1.2,2.2-2.1,3c-0.9,0.8-2,1.4-3.3,1.8c-1.3,0.4-2.8,0.6-4.4,0.6
			c-0.7,0-1.6,0-2.6-0.1c-0.9-0.1-1.8-0.2-2.7-0.3c-0.1,0-0.3-0.2-0.3-0.3V10.5c0-0.2,0.1-0.3,0.3-0.3c0.9-0.2,1.8-0.3,2.7-0.3
			c1-0.1,1.9-0.1,2.7-0.1c1.6,0,3,0.2,4.3,0.5c1.3,0.4,2.4,0.9,3.3,1.7c0.9,0.8,1.6,1.7,2.1,2.9C123.4,16.1,123.7,17.6,123.7,19.2z
			 M111.6,24.8c0,0.2,0.1,0.3,0.3,0.3c0.1,0,0.2,0,0.4,0c0.3,0,0.6,0,0.9,0c2.1,0,3.6-0.5,4.6-1.6c1-1,1.5-2.5,1.5-4.3
			c0-1.9-0.5-3.4-1.4-4.4c-1-1-2.5-1.5-4.6-1.5c-0.3,0-0.6,0-0.9,0c-0.2,0-0.4,0-0.6,0c-0.2,0-0.3,0.1-0.3,0.3V24.8z M136.6,28.5
			c-0.1,0-0.3-0.1-0.3-0.2c-0.2-0.6-0.4-1.2-0.6-1.8c-0.2-0.6-0.4-1.2-0.6-1.8c0-0.1-0.2-0.2-0.3-0.2l-6.8,0c-0.1,0-0.3,0.1-0.3,0.2
			c-0.2,0.6-0.4,1.2-0.6,1.8c-0.2,0.6-0.4,1.2-0.6,1.8c0,0.1-0.2,0.2-0.3,0.2l-3.7,0c-0.2,0-0.4-0.2-0.3-0.4
			c0.6-1.8,1.3-3.5,1.8-5.1c0.6-1.7,1.2-3.3,1.8-4.8c0.6-1.5,1.2-2.9,1.8-4.3c0.6-1.3,1.1-2.5,1.7-3.8c0.1-0.1,0.2-0.2,0.3-0.2h3.5
			c0.1,0,0.2,0.1,0.3,0.2c0.6,1.2,1.1,2.5,1.7,3.8c0.6,1.3,1.2,2.8,1.8,4.3c0.6,1.5,1.2,3.1,1.8,4.8c0.6,1.6,1.2,3.3,1.8,5.1
			c0.1,0.2-0.1,0.4-0.3,0.4L136.6,28.5z M131.7,15c-0.1-0.3-0.5-0.3-0.6,0c0,0.1-0.1,0.2-0.1,0.3c-0.2,0.5-0.4,1-0.6,1.6
			c-0.2,0.6-0.5,1.3-0.8,2c-0.2,0.6-0.5,1.2-0.7,1.9c-0.1,0.2,0.1,0.4,0.3,0.4h4.4c0.2,0,0.4-0.2,0.3-0.4c-0.2-0.7-0.5-1.3-0.7-1.9
			c-0.3-0.7-0.5-1.4-0.8-2c-0.2-0.6-0.4-1.1-0.6-1.6C131.7,15.2,131.7,15.1,131.7,15z M106.5,21.2c-0.2-0.6-0.6-1.2-1.1-1.6
			c-0.5-0.5-1.1-0.9-1.8-1.2c-0.7-0.3-1.5-0.7-2.5-1.1c-0.5-0.2-0.9-0.3-1.3-0.5c-0.4-0.2-0.7-0.3-1-0.5c-0.3-0.2-0.5-0.4-0.7-0.6
			s-0.2-0.5-0.2-0.9c0-0.6,0.2-1,0.7-1.3c0.4-0.3,1.2-0.4,2.1-0.4c0.7,0,6.6,0,9.4,0.1c0.4,0,0.6-0.5,0.3-0.8l-2.9-2.2
			c0,0,0,0-0.1,0c-0.7-0.3-5.8-0.7-7-0.7c-1,0-2,0.1-2.8,0.4c-0.8,0.3-1.5,0.6-2.1,1.1c-0.6,0.5-1,1.1-1.4,1.7
			c-0.3,0.7-0.5,1.5-0.5,2.3c0,0.9,0.2,1.6,0.5,2.2c0.3,0.6,0.7,1.1,1.2,1.5c0.5,0.4,1,0.8,1.6,1c0.6,0.3,1.2,0.5,1.8,0.7
			c1.4,0.5,2.4,0.9,2.9,1.3c0.6,0.4,0.9,0.9,0.9,1.5c0,0.3,0,0.5-0.1,0.8c-0.1,0.2-0.2,0.4-0.5,0.6c-0.2,0.2-0.5,0.3-0.9,0.4
			c-0.4,0.1-0.9,0.1-1.5,0.1c-1.2,0-2.2-0.1-3-0.4c-0.8-0.2-1.2-0.6-1.8-0.7c-0.4-0.1-0.6-0.1-0.7-0.1c-1,0-0.1,3.7,0.3,3.8
			c0.4,0.2,0.8,0.3,1.3,0.5c0.5,0.1,1.1,0.3,1.7,0.4c0.7,0.1,1.4,0.1,2.2,0.1c2.4,0,4.3-0.5,5.5-1.4c1.2-1,1.8-2.3,1.8-4
			C106.8,22.5,106.7,21.8,106.5,21.2z"/>
		<g>
			<path class="st1" d="M93.5,38.5v-6.9h4.7v1.3h-3.1v1.4h2.8v1.3h-2.8v1.7h3.3v1.3H93.5z"/>
			<path class="st1" d="M98.9,33.5c0.3-0.1,0.6-0.1,1-0.2c0.4-0.1,0.8-0.1,1.3-0.1c0.4,0,0.8,0.1,1.1,0.2c0.3,0.1,0.5,0.3,0.7,0.5
				c0.2,0.2,0.3,0.5,0.4,0.8c0.1,0.3,0.1,0.6,0.1,1v3H102v-2.8c0-0.5-0.1-0.8-0.2-1c-0.1-0.2-0.4-0.3-0.7-0.3c-0.1,0-0.2,0-0.3,0
				c-0.1,0-0.2,0-0.3,0v4h-1.5V33.5z"/>
			<path class="st1" d="M108.8,37.9c0,0.9-0.2,1.5-0.7,1.9c-0.4,0.4-1.1,0.6-2,0.6c-0.3,0-0.6,0-1-0.1c-0.3-0.1-0.6-0.1-0.9-0.2
				l0.3-1.2c0.2,0.1,0.5,0.2,0.7,0.2c0.3,0.1,0.5,0.1,0.9,0.1c0.4,0,0.7-0.1,0.9-0.3c0.2-0.2,0.3-0.4,0.3-0.7V38
				c-0.2,0.1-0.3,0.1-0.5,0.2c-0.2,0-0.4,0.1-0.6,0.1c-0.7,0-1.3-0.2-1.7-0.6c-0.4-0.4-0.6-1-0.6-1.8c0-0.4,0.1-0.7,0.2-1.1
				c0.1-0.3,0.3-0.6,0.5-0.8c0.2-0.2,0.5-0.4,0.8-0.5c0.3-0.1,0.7-0.2,1.1-0.2c0.2,0,0.4,0,0.6,0c0.2,0,0.4,0,0.6,0.1
				c0.2,0,0.4,0.1,0.5,0.1c0.2,0,0.3,0.1,0.5,0.1V37.9z M105.5,35.8c0,0.8,0.3,1.2,1,1.2c0.2,0,0.3,0,0.4-0.1c0.1,0,0.2-0.1,0.3-0.1
				v-2.4c-0.1,0-0.2,0-0.3,0s-0.2,0-0.3,0c-0.4,0-0.7,0.1-0.9,0.4C105.6,35,105.5,35.4,105.5,35.8z"/>
			<path class="st1" d="M109.4,36c0-0.5,0.1-0.9,0.2-1.2c0.1-0.3,0.3-0.6,0.6-0.9c0.2-0.2,0.5-0.4,0.8-0.5c0.3-0.1,0.6-0.2,0.9-0.2
				c0.7,0,1.3,0.2,1.8,0.7c0.4,0.5,0.6,1.1,0.6,2c0,0.1,0,0.2,0,0.3c0,0.1,0,0.2,0,0.3h-3.4c0,0.3,0.2,0.5,0.4,0.7
				c0.3,0.2,0.6,0.3,1,0.3c0.3,0,0.5,0,0.8-0.1c0.3,0,0.5-0.1,0.6-0.2l0.2,1.2c-0.1,0-0.2,0.1-0.3,0.1c-0.1,0-0.3,0.1-0.4,0.1
				c-0.2,0-0.3,0.1-0.5,0.1c-0.2,0-0.4,0-0.6,0c-0.5,0-0.9-0.1-1.2-0.2c-0.3-0.1-0.6-0.3-0.9-0.6c-0.2-0.2-0.4-0.5-0.5-0.9
				C109.4,36.7,109.4,36.3,109.4,36z M112.9,35.4c0-0.1,0-0.2-0.1-0.4c0-0.1-0.1-0.2-0.2-0.3c-0.1-0.1-0.2-0.2-0.3-0.2
				c-0.1-0.1-0.3-0.1-0.4-0.1c-0.2,0-0.3,0-0.4,0.1c-0.1,0.1-0.2,0.1-0.3,0.2c-0.1,0.1-0.1,0.2-0.2,0.3c0,0.1-0.1,0.2-0.1,0.4H112.9
				z"/>
			<path class="st1" d="M114.9,33.5c0.3-0.1,0.6-0.1,1-0.2c0.4-0.1,0.8-0.1,1.3-0.1c0.4,0,0.8,0.1,1.1,0.2c0.3,0.1,0.5,0.3,0.7,0.5
				c0.2,0.2,0.3,0.5,0.4,0.8c0.1,0.3,0.1,0.6,0.1,1v3H118v-2.8c0-0.5-0.1-0.8-0.2-1c-0.1-0.2-0.4-0.3-0.7-0.3c-0.1,0-0.2,0-0.3,0
				c-0.1,0-0.2,0-0.3,0v4h-1.5V33.5z"/>
			<path class="st1" d="M120.2,38.5V31l1.5-0.2v2.5c0.1,0,0.2-0.1,0.4-0.1c0.2,0,0.3,0,0.5,0c0.4,0,0.8,0.1,1.1,0.2
				c0.3,0.1,0.5,0.3,0.7,0.5c0.2,0.2,0.3,0.5,0.4,0.8c0.1,0.3,0.1,0.6,0.1,1v3h-1.5v-2.8c0-0.5-0.1-0.8-0.2-1
				c-0.1-0.2-0.4-0.3-0.7-0.3c-0.1,0-0.3,0-0.4,0c-0.1,0-0.2,0-0.3,0.1v4H120.2z"/>
			<path class="st1" d="M127.4,33.2c0.4,0,0.8,0,1.1,0.1c0.3,0.1,0.5,0.2,0.7,0.4c0.2,0.2,0.3,0.4,0.4,0.7c0.1,0.3,0.1,0.6,0.1,0.9
				v3.1c-0.2,0-0.5,0.1-0.9,0.2c-0.4,0.1-0.8,0.1-1.4,0.1c-0.3,0-0.6,0-0.9-0.1c-0.3-0.1-0.5-0.2-0.7-0.3c-0.2-0.1-0.4-0.3-0.5-0.5
				c-0.1-0.2-0.2-0.5-0.2-0.8c0-0.3,0.1-0.6,0.2-0.8c0.1-0.2,0.3-0.4,0.5-0.5c0.2-0.1,0.4-0.2,0.7-0.3c0.3-0.1,0.5-0.1,0.8-0.1
				c0.2,0,0.4,0,0.5,0c0.1,0,0.3,0,0.4,0.1v-0.1c0-0.3-0.1-0.5-0.2-0.6c-0.2-0.2-0.4-0.2-0.8-0.2c-0.3,0-0.5,0-0.7,0.1
				c-0.2,0-0.5,0.1-0.6,0.2l-0.2-1.2c0.1,0,0.2-0.1,0.3-0.1c0.1,0,0.3-0.1,0.4-0.1c0.2,0,0.3,0,0.5-0.1
				C127.1,33.2,127.3,33.2,127.4,33.2z M127.6,37.5c0.1,0,0.3,0,0.4,0c0.1,0,0.2,0,0.3,0v-1.1c-0.1,0-0.1,0-0.3,0
				c-0.1,0-0.2,0-0.3,0c-0.1,0-0.3,0-0.4,0c-0.1,0-0.2,0-0.3,0.1c-0.1,0-0.2,0.1-0.2,0.2c-0.1,0.1-0.1,0.2-0.1,0.3
				c0,0.2,0.1,0.4,0.2,0.5C127.1,37.5,127.3,37.5,127.6,37.5z"/>
			<path class="st1" d="M133.7,34.6c-0.1,0-0.3-0.1-0.5-0.1c-0.2,0-0.4-0.1-0.6-0.1c-0.1,0-0.2,0-0.3,0c-0.1,0-0.2,0-0.3,0.1v4h-1.5
				v-5c0.3-0.1,0.6-0.2,0.9-0.3c0.4-0.1,0.8-0.1,1.2-0.1c0.1,0,0.2,0,0.3,0c0.1,0,0.2,0,0.3,0c0.1,0,0.2,0,0.3,0.1
				c0.1,0,0.2,0.1,0.3,0.1L133.7,34.6z"/>
			<path class="st1" d="M135.8,31.8c0,0.3-0.1,0.5-0.3,0.6c-0.2,0.2-0.4,0.2-0.6,0.2s-0.4-0.1-0.6-0.2c-0.2-0.2-0.3-0.4-0.3-0.6
				c0-0.3,0.1-0.5,0.3-0.6c0.2-0.2,0.4-0.2,0.6-0.2s0.4,0.1,0.6,0.2C135.7,31.3,135.8,31.5,135.8,31.8z M135.7,38.5h-1.5v-5.2h1.5
				V38.5z"/>
			<path class="st1" d="M138.4,33.2c0.4,0,0.8,0,1.1,0.1c0.3,0.1,0.5,0.2,0.7,0.4c0.2,0.2,0.3,0.4,0.4,0.7c0.1,0.3,0.1,0.6,0.1,0.9
				v3.1c-0.2,0-0.5,0.1-0.9,0.2c-0.4,0.1-0.8,0.1-1.4,0.1c-0.3,0-0.6,0-0.9-0.1c-0.3-0.1-0.5-0.2-0.7-0.3c-0.2-0.1-0.4-0.3-0.5-0.5
				c-0.1-0.2-0.2-0.5-0.2-0.8c0-0.3,0.1-0.6,0.2-0.8c0.1-0.2,0.3-0.4,0.5-0.5c0.2-0.1,0.4-0.2,0.7-0.3c0.3-0.1,0.5-0.1,0.8-0.1
				c0.2,0,0.4,0,0.5,0c0.1,0,0.3,0,0.4,0.1v-0.1c0-0.3-0.1-0.5-0.2-0.6c-0.2-0.2-0.4-0.2-0.8-0.2c-0.3,0-0.5,0-0.7,0.1
				c-0.2,0-0.5,0.1-0.6,0.2l-0.2-1.2c0.1,0,0.2-0.1,0.3-0.1c0.1,0,0.3-0.1,0.4-0.1c0.2,0,0.3,0,0.5-0.1
				C138.1,33.2,138.2,33.2,138.4,33.2z M138.5,37.5c0.1,0,0.3,0,0.4,0c0.1,0,0.2,0,0.3,0v-1.1c-0.1,0-0.1,0-0.3,0s-0.2,0-0.3,0
				c-0.1,0-0.3,0-0.4,0c-0.1,0-0.2,0-0.3,0.1c-0.1,0-0.2,0.1-0.2,0.2c-0.1,0.1-0.1,0.2-0.1,0.3c0,0.2,0.1,0.4,0.2,0.5
				C138,37.5,138.2,37.5,138.5,37.5z"/>
		</g>
	</g>
	<g>
		<g>
			<path class="st1" d="M46.5,2.4c0.2,0.1,2.1,2.3,2.9,3.3c1.1,1.3,1.7,0.9,1.7,0.9C53.1,6,53.9,6,54,6c0,0,0,0,0,0
				c1-0.1,1.5-0.6,1.6-0.7c0,0,0-0.1,0.1-0.1c0.1-0.2,0.4-1,0.7-1.9L46.3,2.2C46.4,2.3,46.4,2.3,46.5,2.4z"/>
			<path class="st1" d="M41.6,15.3c0,0,0-0.1,0.1-0.1c0.2-0.8,1.4-2.7,1.6-3c0,0,0,0,0.1-0.1c0.1-0.1,0.5-0.5,0.1-1.6
				c-0.5-1.2-1.1-2.8-1.5-4.2c-0.4-1.3,0.2-2,0.3-2c0,0,0,0,0,0c0.2-0.1,2.2-1.7,2.9-2.1c0.1,0,0.1-0.1,0.2-0.1l-3.2-0.4
				c-1.5-0.2-2.8,0.9-2.8,2.4v11.7l1.2,0.1C40.9,16.1,41.4,15.5,41.6,15.3z"/>
			<path class="st1" d="M41.1,29.8c0.4-0.3,0.2-0.6,0.2-0.6c-0.9-2.7-0.8-3.2-0.9-4c0-0.8-0.7-1.2-0.8-1.3c0,0,0,0,0,0
				c0,0-0.1-0.1-0.2-0.1v8C40,31.1,40.8,30,41.1,29.8z"/>
			<path class="st1" d="M83.7,6.5L63.6,4.2c0.1,1.4,0.1,3,0.1,3.4c0,0.1,0,0.2,0.1,0.3c0.1,0.3,0.4,0.9,1.2,1.5c0,0,0,0,0.1,0
				c0.1,0.1,0.9,0.6,2.5,2.3c0,0,0.9,0.7,1.6,0.5c1.4-0.5,3.5-1,3.5-1s1-0.2,1.4,0.6c0.4,0.8,1.8,3.3,2,3.6c0,0,0,0,0,0.1
				c0.1,0.2,0.4,1.1-0.3,1.9c-0.8,1-1.6,1.7-2.4,2.5c-0.7,0.7-0.5,1.2-0.4,1.4c0,0,0,0.1,0,0.1c0.1,0.5,0.6,2.7,0.6,3.5
				c0,0.1,0,0.2,0,0.3c0.1,0.3,0.4,1,0.8,1.1l2.2,1.3c0,0,0.8,0.2,0.7,1.1c-0.1,0.8-0.6,3.6-0.7,4c-0.3,0.8-0.8,0.9-2.1,1
				c-0.7,0-0.8,0-1.1,0c-0.5,0-1,0.3-1.2,0.8c0,0,0,0.1,0,0.1c-0.3,0.7-0.8,1.6-1.8,3.2c-0.2,0.3-0.2,0.6-0.2,1
				c0.1,0.5,0.7,2.8,0.8,3.1c0,0,0,0.1,0,0.1c0,0.2,0.1,0.7-0.2,1c-0.3,0.4-2.7,1.8-3,2c0,0-0.1,0-0.1,0c-0.2,0.1-0.8,0.2-1.2-0.1
				c-0.5-0.4-2.8-3.1-3.9-2.8c-1,0.2-3.2,0.5-3.5,0.6c0,0-0.1,0-0.1,0c-0.2,0.1-0.8,0.4-1.1,1.1c-0.2,0.6-0.9,2.1-1.2,2.9l27-3.1
				c1.5-0.2,2.8-1.3,2.8-2.4V9C86.5,7.8,85.2,6.7,83.7,6.5z"/>
			<path class="st1" d="M50.2,45.5C50.2,45.5,50.2,45.5,50.2,45.5c0-0.3-0.3-3-0.2-3.8c0.1-0.8-0.6-1.5-0.7-1.6c0,0,0,0,0,0
				c-0.2-0.1-2.2-1.7-3.1-2.4c-0.9-0.8-3.9,0.5-4.4,0.5c-0.5,0.1-1.1-0.5-1.2-0.6c0,0,0,0,0-0.1c-0.1-0.2-0.7-1.1-1.2-1.9v10.2
				c0,1.5,1.2,2.6,2.8,2.4L52.6,47c-0.5-0.1-0.9-0.2-1.2-0.3C50.4,46.5,50.2,45.7,50.2,45.5z"/>
		</g>
		<path class="st0" d="M66.4,17.9c-3.6-5.8-10.5-8-15.5-4.8c-5,3.3-6.2,10.7-2.6,16.6c0.6,0.9,1.2,1.8,2,2.5l6.1-5.2l-4.5-0.2
			l-0.3-2.6l0,0l0,0l6.4-5.5L57.3,18c-0.1-0.1-0.1-0.2,0-0.3c0.1-0.1,0.2-0.2,0.3-0.2l2.9-0.2c0.3,0,0.6,0.3,0.6,0.6l-0.2,2.9
			c0,0.1-0.1,0.2-0.2,0.3c-0.1,0.1-0.2,0-0.3,0l-0.8-0.8l-4.4,4.4l3.6,0.4l1.6,1.6l-7.6,7.6c3.5,2.1,7.8,2.2,11.1,0
			C69,31,70.1,23.7,66.4,17.9z"/>
	</g>
</g>
</svg>
